/* XPM */
static char *a00531cd2dbc46fcdd9ff7dfb6958c2c4oogfQqaSpUrH4aK[] = {
/* columns rows colors chars-per-pixel */
"32 32 154 2 ",
"   c #4C1D13",
".  c #501F16",
"X  c #542516",
"o  c #562817",
"O  c #5A2A17",
"+  c #54251A",
"@  c #58251A",
"#  c #56291A",
"$  c #5C2D1A",
"%  c #5F301C",
"&  c #602F1B",
"*  c #62321D",
"=  c #68351E",
"-  c #67381F",
";  c #6B3A1F",
":  c #723D19",
">  c #542B20",
",  c #5D2E21",
"<  c #5E3221",
"1  c #653521",
"2  c #693721",
"3  c #673822",
"4  c #693922",
"5  c #71401F",
"6  c #6C4020",
"7  c #754722",
"8  c #794820",
"9  c #7F582C",
"0  c #774D31",
"q  c #775032",
"w  c #814717",
"e  c #8C5014",
"r  c #87521E",
"t  c #8C5318",
"y  c #945415",
"u  c #995712",
"i  c #A25C0F",
"p  c #B56E0F",
"a  c #AC6B12",
"s  c #A36A1E",
"d  c #B46D13",
"f  c #855221",
"g  c #845D27",
"h  c #825F29",
"j  c #805C34",
"k  c #976C28",
"l  c #A16D21",
"z  c #AD7C26",
"x  c #C77709",
"c  c #D8870C",
"v  c #DF8D0A",
"b  c #CE8816",
"n  c #CB8718",
"m  c #CC8B1D",
"M  c #D38B16",
"N  c #D98D12",
"B  c #D18E1B",
"V  c #D79116",
"C  c #DC9314",
"Z  c #DD9817",
"A  c #D5941D",
"S  c #DA961A",
"D  c #DC9B1E",
"F  c #E59610",
"G  c #E79C12",
"H  c #E89F15",
"J  c #E19E1B",
"K  c #E6A51D",
"L  c #E8A61C",
"P  c #E9A91D",
"I  c #CD9326",
"U  c #D29522",
"Y  c #D49A23",
"T  c #DC9F25",
"R  c #DFA223",
"E  c #D7A02B",
"W  c #DBA42A",
"Q  c #DEAA2F",
"!  c #C7A535",
"~  c #C5A835",
"^  c #C2AA3D",
"/  c #E0A524",
"(  c #E5AB25",
")  c #ECAE21",
"_  c #E1AB2B",
"`  c #EDB426",
"'  c #E6B32D",
"]  c #EDB92C",
"[  c #F1BC2C",
"{  c #E0AC30",
"}  c #E4B431",
"|  c #E5BA36",
" . c #EBBC33",
".. c #E2BC3F",
"X. c #F2C12F",
"o. c #ECC034",
"O. c #EBCB32",
"+. c #E6C23B",
"@. c #ECC73B",
"#. c #ECCD3C",
"$. c #F4C531",
"%. c #F4CB36",
"&. c #F8CE35",
"*. c #F5CF3A",
"=. c #F7D536",
"-. c #F8D037",
";. c #F5D33D",
":. c #F8D038",
">. c #F2D838",
",. c #F4D93C",
"<. c #F8D83F",
"1. c #FEE63F",
"2. c #FDE83F",
"3. c #9F8340",
"4. c #C5AF4A",
"5. c #C8B44F",
"6. c #D9C849",
"7. c #DBCB51",
"8. c #EDCB42",
"9. c #EED247",
"0. c #EFD64E",
"q. c #F4D544",
"w. c #F3D845",
"e. c #F9DC42",
"r. c #F1D64C",
"t. c #F4DF4A",
"y. c #F4DC4C",
"u. c #E9DE50",
"i. c #ECDE54",
"p. c #F4DB53",
"a. c #F4E047",
"s. c #F9E341",
"d. c #FDE743",
"f. c #F9E246",
"g. c #F2E840",
"h. c #FFEE44",
"j. c #F8E14B",
"k. c #FAE34E",
"l. c #FCEA4B",
"z. c #FCEB4C",
"x. c #FBED4E",
"c. c #FDED4E",
"v. c #FFF54C",
"b. c #FDF849",
"n. c #F0E452",
"m. c #F9E356",
"M. c #FAE654",
"N. c #F7EB54",
"B. c #FAEC53",
"V. c #FDEE52",
"C. c #F8E358",
"Z. c #F9E75A",
"A. c #FCEC59",
"S. c #FFF752",
/* pixels */
"$ * * * * $ * & $ * * O O * * * O $ * * o $ $ o * O * $ $ * * = ",
"$ = * = = $ * * $ * * o o & * * O $ * $ X O $ o & O * & $ $ * * ",
"O * & * = O 1 * $ * = o o & * * O $ = & X O $ o $ O 1 * O $ $ * ",
"O * $ * * O 1 * $ * * O o $ $ * $ O 1 % O $ $ o $ $ 4 * $ & $ * ",
"O % O $ * $ 1 * * % * $ o $ $ = % O 1 $ $ $ O o & * 2 1 * & $ * ",
"$ $ $ * % $ 1 * * $ = $ o O $ = * O 1 $ % $ o O * * 2 1 * & $ $ ",
"$ $ O $ $ & 1 % % $ = * $ $ $ $ O o = % = $ o O & $ = * & & $ $ ",
"$ $ $ * $ * * % $ O = *   @ 3 0 q 3 , X * $ o $ * $ * * & & $ O ",
"$ $ * 1 * 1 * * $ $ * @ j 5.i.N.V.n.7.3.1 X o O * $ & * * * * $ ",
"$ $ = 4 3 1 * $ $ o 1 4.S.s.;.#.#.#.,.v.u.9   $ * $ $ * * * * O ",
"& $ * 4 4 2 % O o $ 6.h.+.0.B.V.c.x.a.@.>.b.h X = * $ * % * * O ",
"* % * 4 4 2 % $ . ^ 2...Z.A.M.y.t.j.l.c.@.O.g.6 $ * O $ % & $ O ",
"* * = = 4 * * + g 1.| C.m.m.p.t.V.r.k.f.d.| =.~ @ * O $ % $ $ O ",
"* * & * 3 & * + ! %.8.y.r.p.9.f.z.w.r.w.;.<.} *.7 O $ $ $ $ $ & ",
"* * * * 4 $ $ 3 o. .8.8.q.q.<.e.e.e.w.q.*.%.} $.k # & & $ O $ * ",
"* * $ * 4 $ O 7 o.' @.| %.-.&.*.*.:.:.&.'  .} [ z # * $ $ O $ * ",
"= * O * = * $ 8 ] _  . .} ] X.X.X.$.[ _ }  ._ ` z # $ O $ O $ & ",
"= % $ $ * * * 5 ( W ' ' } / ` ` ` ` ( Q } ' W ) l # $ O $ $ * $ ",
"$ $ $ % * % * $ U ( / ( _ D P K K K J W { _ Y L f < O O $ $ * $ ",
"$ * $ * * * * + s ) Y K D Z C A U V C U Q E D M 1 1 O O $ $ * & ",
"* * * 1 * = * $ ; S R S C M B T T U n A E I G t # 1 $ $ % $ * * ",
"% * * * * = & * * r H A B N C S V S A U I F a + $ $ $ $ $ $ * = ",
"O * % * $ * & * = % t C Z A B M b m m B v d $ O $ $ $ * $ $ * * ",
"$ = * $ * = $ $ * * o : p C C M M N c x e $ $ $ $ O $ * $ $ * & ",
"$ * % $ * = $ $ * * % O + : y i i u w * # * $ $ $ $ * * $ $ & & ",
"* * % $ * * $ $ * % O $ $ $ # + # $ $ $ * * O $ % 1 = * $ $ & $ ",
"* * * % * * $ $ $ * o O $ * & $ * * = $ * * O $ $ 1 1 = $ * & $ ",
"* * * $ * * $ $ % & X $ $ & $ O $ * * * * * $ * * 1 3 = $ % $ $ ",
"* 1 % O * * $ * * & o $ $ & * $ $ * = 1 * $ O 1 1 = 2 1 $ $ % $ ",
"$ * $ O * & & * * $ X $ $ * * * O * = = * $ o * = 1 4 = $ $ < $ ",
"% * $ O % & * % & $ X $ $ * = * O * = * * $ + * - 1 = * $ $ < $ ",
"% * $ $ $ & * % * $ $ * $ * 1 = O * = * % $ + * = 1 * * $ $ , > "
};
