/* XPM */
static char *a155037084354c9ba1d56b9ace6bc156sNyOD1QfqTb0Lzi9[] = {
/* columns rows colors chars-per-pixel */
"32 32 158 2 ",
"   c #491703",
".  c #511E0B",
"X  c #481F14",
"o  c #55230E",
"O  c #58240F",
"+  c #542614",
"@  c #592612",
"#  c #562817",
"$  c #5A2A15",
"%  c #53271A",
"&  c #5C2D1A",
"*  c #5F301C",
"=  c #612F1B",
"-  c #62321D",
";  c #68351E",
":  c #67381F",
">  c #71381E",
",  c #542B20",
"<  c #5A2F22",
"1  c #5E3321",
"2  c #653521",
"3  c #6A3721",
"4  c #663924",
"5  c #6A3922",
"6  c #633C2E",
"7  c #6C3F2A",
"8  c #713920",
"9  c #6B412E",
"0  c #6D4332",
"q  c #6F4B3E",
"w  c #724533",
"e  c #714936",
"r  c #7A4832",
"t  c #7C513D",
"y  c #654C4E",
"u  c #694C49",
"i  c #744D42",
"p  c #765041",
"a  c #7B5647",
"s  c #654E51",
"d  c #675157",
"f  c #6A5255",
"g  c #69545B",
"h  c #7D5C50",
"j  c #795E5C",
"k  c #695560",
"l  c #6B696C",
"z  c #796670",
"x  c #A2491E",
"c  c #8C4626",
"v  c #9A4C28",
"b  c #9F542F",
"n  c #8E4F37",
"m  c #8A543A",
"M  c #975438",
"N  c #A34C27",
"B  c #A84E22",
"V  c #A65126",
"C  c #A1502B",
"Z  c #AA542B",
"A  c #AC592F",
"S  c #B15427",
"D  c #B15A2D",
"F  c #B85F2C",
"G  c #AA5730",
"H  c #A95830",
"J  c #A45C3C",
"K  c #A95E3A",
"L  c #B55E31",
"P  c #9B643D",
"I  c #B8602F",
"U  c #A2683C",
"Y  c #B56234",
"T  c #BB6635",
"R  c #BC6836",
"E  c #B66538",
"W  c #B96538",
"Q  c #BE6939",
"!  c #C76C36",
"~  c #C36F3C",
"^  c #C7733F",
"/  c #8B5D4C",
"(  c #9C5F44",
")  c #835E50",
"_  c #87604F",
"`  c #9D6246",
"'  c #826156",
"]  c #866659",
"[  c #A16845",
"{  c #A36D4E",
"}  c #B56D44",
"|  c #B17544",
" . c #BB7A47",
".. c #BA7C49",
"X. c #8D736D",
"o. c #9C7663",
"O. c #9A796A",
"+. c #846E70",
"@. c #887676",
"#. c #967B72",
"$. c #9A7F76",
"%. c #D37F45",
"&. c #9B857E",
"*. c #A88B7C",
"=. c #C68B53",
"-. c #C88B53",
";. c #8D7B80",
":. c #917E83",
">. c #948283",
",. c #958986",
"<. c #99878E",
"1. c #9A8690",
"2. c #85989F",
"3. c #A28A83",
"4. c #A6938E",
"5. c #AB948D",
"6. c #A08E96",
"7. c #A18F98",
"8. c #AD9A94",
"9. c #A4929A",
"0. c #AA979D",
"q. c #B19B93",
"w. c #AC9CA3",
"e. c #96A5A9",
"r. c #B5A6A3",
"t. c #BDACA7",
"y. c #B2A3AA",
"u. c #B7A8AE",
"i. c #BEB1AE",
"p. c #BCADB2",
"a. c #BAB1B2",
"s. c #C29B88",
"d. c #D7B39B",
"f. c #C2B3AE",
"g. c #C7BAB6",
"h. c #CEB8B1",
"j. c #C3B9BB",
"k. c #C8BFBE",
"l. c #CEC1BE",
"z. c #D6C2B7",
"x. c #C4BEC2",
"c. c #C9BFC0",
"v. c #CCC2C2",
"b. c #CDC7C9",
"n. c #D2CBCA",
"m. c #D8D0CF",
"M. c #D5CED0",
"N. c #DCD6D6",
"B. c #DED8D7",
"V. c #DFD9DA",
"C. c #E1DADA",
"Z. c #E2DDDC",
"A. c #E7E1DF",
"S. c #E2DEE0",
"D. c #E7E3E3",
"F. c #E9E5E5",
"G. c #EDEAEB",
"H. c #F6FAFF",
/* pixels */
"& - - - - & - = & - - $ $ - - - $ & - - # & & # - $ - & & - - ; ",
"& ; - ; ; & - - & - - # # = - - $ & - & + $ & # = $ - = & & - - ",
"$ - = - ; $ 2 - & - ; $ # = * - $ & ; - # $ & # & $ 2 - $ & & - ",
"$ - & - - $ 2 - & - - o + * - - & $ - @ @ & & # & & 5 - & = & - ",
"$ * $ & - & 2 - - * 4 a 0 o O $ @ $ w p 0 - & $ = - 3 2 - = & - ",
"& & & - * & 3 - - o 5.V.>.h 3.q.t.l.C.C.a.i   + - - 3 2 - = & & ",
"& & $ & & & 2 @ ) f.f.k.4.i.b.j.v.v.c.j.r.3.5.' $ * ; - = = & & ",
"& & & - & 7 7 o &.H.D.M.S.Z.Z.C.C.B.B.Z.D.F.G.V.0 @ - - = = & $ ",
"& & - 5 & ..Y c ` s.5.y u j +.@.:.:.>.>.;.<.m.Z.] o - - - - - & ",
"& & ; 5 1  .L Z Z x B > + @ & & # X $ # # d c.F.$.o - - - - - $ ",
"= & - 5 2 -.Y Z A G J 3 # & - ; $ % - * - f j.F.8.@ & - * - - $ ",
"- * - 5 4 -.Y Y R Z i 2 # $ - - & & 2 & - s p.G.5.@ & & * = & $ ",
"- - ; ; 4 =.Y R E D Z - # & - - $ * 3 & - s u.D.g.- $ & * & & $ ",
"- - - - 4 -.Y W ,./ Z & $ - - - & 2 5 & - y y.Z.n.9 @ = & & & = ",
"- - - - 4 -.I { e.@.v - & - - - & - 5 & - y w.Z.B.p @ = & $ & - ",
"- - & - 4 -.F o.2.l c = & 2 - & & - ; & - s 0.F.f.2 & & & $ & - ",
"; - $ - 2 -.Y } { [ b & & 5 - $ $ * 2 & * s 1.V.v.e $ & & $ & = ",
"; * & & * -.W T R ! H & - 5 - $ # * 2 # * s 9.C.F.#.. & & & - & ",
"& & & - & -.R Y Y Q Z - - 5 - # # & ; # 2 d 7.Z.Z.#.. & & & - & ",
"& - & 2 $ ..W L Y R A 2 & ; - # & & - $ 2 d 6.C.Z.#.. & & & - = ",
"- - - 2 $  .W Y Y L D 8 & ; - # * & - & 2 g 9.A.V.' @ & * & - - ",
"* - - ; # | R Z A Z M 0 & - - & 2 * - = 4 g 9.Z.Z.#.o - & & - ; ",
"$ - * - # U ~ N Z A n w & - - - 2 - - - 6 k 0.C.Z.4.o - & & - - ",
"& ; & $ # P ^ N V Z S v & - - & - & - = 1 z p.B.C.r.# 2 & & - = ",
"- - *.z.h.d.%.C K J ( m & & - & & * - $ q x.n.N.G.8.$ 2 & & = = ",
"- - 4 _ O.o.m r t 9 1 $ & - - $ & - - $ 0 #.X.' ' 7 ; - & & = & ",
"* - & @ O @ # $ $ & # $ & = & $ & - - * & $ + o @ - 2 ; & - = & ",
"- - - & - - & * - - + & & = & $ & - - - - - & 2 - 2 3 ; & * & & ",
"- 2 * $ - - & - - = # & & = - & & - ; 2 - & $ 2 2 ; 3 2 & & * & ",
"& - & $ - = = - - & + & & - - - $ - ; ; - & # - ; 2 5 ; & & 1 & ",
"* - & $ * = - * = & + & & - ; - $ - ; - - & % - : 2 ; - & & 1 & ",
"* - & & & = - * - & & - & - 2 ; $ - ; - * & % - ; 2 - - & & < , "
};
