/* XPM */
static char *_03de2f8d3e84c5dcda4c1fb9fe5190elONWo0fNLpiiE4on[] = {
/* columns rows colors chars-per-pixel */
"32 32 193 2 ",
"   c #292232",
".  c #352B36",
"X  c #3B303A",
"o  c #4D1B07",
"O  c #4F1E0C",
"+  c #4C1702",
"@  c #511E0B",
"#  c #521B07",
"$  c #55220D",
"%  c #59240F",
"&  c #552514",
"*  c #592613",
"=  c #572815",
"-  c #5B2A16",
";  c #53251A",
":  c #572919",
">  c #5D2C19",
",  c #5D261A",
"<  c #5F301C",
"1  c #612E1A",
"2  c #692E19",
"3  c #63321C",
"4  c #68351E",
"5  c #76331B",
"6  c #5A2D25",
"7  c #592C28",
"8  c #572F2C",
"9  c #5A312D",
"0  c #45343B",
"q  c #583637",
"w  c #633324",
"e  c #693420",
"r  c #6A3D2B",
"t  c #673927",
"y  c #643C38",
"u  c #6E4332",
"i  c #6F4A3D",
"p  c #744C3C",
"a  c #714731",
"s  c #79503F",
"d  c #5D3D43",
"f  c #4B3C43",
"g  c #613F40",
"h  c #5D464C",
"j  c #5D4B52",
"k  c #544D59",
"l  c #5D525A",
"z  c #4C4B55",
"x  c #674746",
"c  c #734D40",
"v  c #6F5848",
"b  c #775342",
"n  c #7C5343",
"m  c #7A564A",
"M  c #785D4B",
"N  c #624B53",
"B  c #604750",
"V  c #67525C",
"C  c #715750",
"Z  c #585562",
"A  c #6C5A60",
"S  c #745F69",
"D  c #74626C",
"F  c #6C6571",
"G  c #843B1D",
"H  c #8C3E1D",
"J  c #993412",
"K  c #933E1A",
"L  c #9C3B15",
"P  c #892806",
"I  c #9C451D",
"U  c #B7531E",
"Y  c #AA4517",
"T  c #8F4020",
"R  c #9F5C37",
"E  c #8E563A",
"W  c #A54C23",
"Q  c #AB4E22",
"!  c #AC5629",
"~  c #B4582A",
"^  c #A85D30",
"/  c #B95D30",
"(  c #BA6533",
")  c #BC6A34",
"_  c #B86834",
"`  c #BD733B",
"'  c #A7673D",
"]  c #CE672F",
"[  c #C36A35",
"{  c #C27037",
"}  c #C4723B",
"|  c #CA763D",
" . c #C77A3C",
".. c #CC7C3D",
"X. c #D27D3F",
"o. c #895D44",
"O. c #815D4E",
"+. c #825641",
"@. c #905742",
"#. c #836255",
"$. c #8A685C",
"%. c #876857",
"&. c #997454",
"*. c #AB6E43",
"=. c #B77A49",
"-. c #886960",
";. c #9C6D63",
":. c #8F7267",
">. c #95796E",
",. c #97726A",
"<. c #836B70",
"1. c #86737A",
"2. c #977C78",
"3. c #A06E61",
"4. c #A67970",
"5. c #C77C41",
"6. c #CC7C42",
"7. c #D17D43",
"8. c #CF803E",
"9. c #BC844F",
"0. c #B68452",
"q. c #9C8075",
"w. c #9B837C",
"e. c #AD837A",
"r. c #A1887E",
"t. c #CC8244",
"y. c #CF884A",
"u. c #D28345",
"i. c #D48C4A",
"p. c #D68A49",
"a. c #DB934E",
"s. c #DC9550",
"d. c #DA9C56",
"f. c #C38853",
"g. c #E2964D",
"h. c #E29B52",
"j. c #D6A05B",
"k. c #E5A257",
"l. c #E8A559",
"z. c #E7AC5F",
"x. c #8F7B83",
"c. c #917C84",
"v. c #8F8089",
"b. c #96858A",
"n. c #9B8F97",
"m. c #9F959B",
"M. c #A68E87",
"N. c #A9938C",
"B. c #A99793",
"V. c #A79798",
"C. c #B09C94",
"Z. c #B5A39D",
"A. c #A99BA2",
"S. c #ACA0A6",
"D. c #AEA6AA",
"F. c #BAA9A3",
"G. c #B6ABAE",
"H. c #BDADA9",
"J. c #B6A6A5",
"K. c #BFB0AB",
"L. c #B5ABB0",
"P. c #BCAFB4",
"I. c #BBB2B5",
"U. c #BDB4B8",
"Y. c #C3B3AF",
"T. c #C5B7B3",
"R. c #C3B7BB",
"E. c #C5BBBC",
"W. c #CABEBD",
"Q. c #CCC1BE",
"!. c #C4BCC1",
"~. c #CCC2C3",
"^. c #CCC5C8",
"/. c #D2C9C6",
"(. c #D4CCCC",
"). c #D4CBCB",
"_. c #D9D1CF",
"`. c #D7D0CE",
"'. c #D7CFD1",
"]. c #DBD4D3",
"[. c #DFD8D7",
"{. c #D6D0D0",
"}. c #E0DAD7",
"|. c #E3DCDB",
" X c #E7E1DE",
".X c #E9E2DF",
"XX c #E6E1E1",
"oX c #E6E1E0",
"OX c #EAE4E3",
"+X c #EDE9E9",
"@X c #F1ECEB",
"#X c #F3EFF0",
"$X c #F3F1F2",
/* pixels */
"- 1 1 1 1 - > 1 > 3 > = - 1 1 3 - > < > & - - & > - > > - > 1 3 ",
"- 3 1 3 3 - 3 % o - 3 = = 1 > - @ @ % % & = - = > * > > - > 1 3 ",
"- 1 > 3 4 - t $.r.O.% O O * 1 r b :.>.m : - > = - = 3 > - - - 1 ",
"* > - > > + #.|.].b.$.B.F.T./.}.+X#X].I.i + $ = - - e 3 - - > 1 ",
"* > - * n H.F.R.G.w.J.^.P.U.E.W.W.R.I.B.2.M.$.= - > e 3 > 1 - 1 ",
"* > > $ q.$XXXXXOX+X.X|.].{.{.(.(._.].}.OXXX+X,.$ 3 e 3 1 > - - ",
"- - - $ r.|.|.S.v.m.D.I.!.^.^.^.(.(.(.^.~.}.|.K.* > 3 3 > > - - ",
"- - - & N. X{.A ; % , 6 9 q y g x g y x S ^.|.~.w * 3 1 > > - * ",
"> - 3 > Z.XX(.N I X.W Q ! I I W K W Q 5 V R.|.(.u * 1 3 1 1 3 * ",
"> - 4 1 F.XXI.d _ l.~ u.h._ 6.k.) i.6.G N P.}.|.O.$ > 3 > 3 3 * ",
"> - > a (.|.U.q ) a.( a.a.( 5.z.` t.u.H N J. X[.n * - 1 > 1 3 - ",
"> > - n ].|.L.q { a.) i.k.[ u.z.` t.i.T B A. X}.>.% - - > > - = ",
"1 3 - n ].|.S.q v C ^ s.d.b i j. .y.i.H h A.|.|.C.$ - - > > - * ",
"3 3 * p {.|.A.9 ' 0._ h.M .   v t.i.a.K h V.|.}.Y.- - - > - - 1 ",
"> 3 - u (.|.V.7 ..l. .9.f 0 X 0 *.a.s.H h b.}.[.Q.3 - - > - - 1 ",
"3 3 > > H.OXm.6  .d.8.&.. X .   o.a.a.H h b.|.|.N.* > - > = - 1 ",
"4 3 * t Q.OXn.6  .d...f.&.o.+.%.=.a.s.H j x.).OXq.- - - > = - - ",
"3 > * u _..XA.7 { s...i.g.u.u.h.u.i.a.H N c.{.].|.p $ : - - > - ",
"- > * p `..XS.8 ( a.t.i.i.t.t.i.t.i.i.G j c.|.{.|.#.O - - - > - ",
"- > * p {. XL.q ! a.5.y.i.t.u.i.t.i.i.G j 1.}.{.|.#.@ - > - > - ",
"> > - r ~. XG.q I g.| 6.u.u.u.u.u.u.u.5 j 1.}._.|.#.$ - > - 1 1 ",
"> 3 - r Q. XR.h r #.E | u.6.6.u.u.u...5 j <.}.}.(.u * > > - 3 3 ",
"- 3 * p ].}.).V w @.R } u.| 6.6.6.u.[ 2 j A ].].].c $ 1 - - > 3 ",
"- 3 - t /.}.].D 2 ] [ ) u.[ } 6.) [ / e k l (.].XX-.@ 3 - - > > ",
"> 3 > - T.|.].1.w Q / ( 7.( } 7.( [ ~ y z k '.].XXw.$ 3 - - > - ",
"> > > * H.XX|.v.9 P J J Y L Q U L Q K 0 Z F ].`.|.N.- 3 - - > - ",
"> 3 3 $ >.XX@X!.2.e.e.4.4.;.;.3.,.e.2.1.U.~.{. X$XZ.- 4 - > > - ",
"3 3 > - - u m O.n n m :.M.F.Y.W.~.^.W.B.V.J.B.F.B.s 3 3 - > > - ",
"> 3 > - > * $ $ % % o @ # $ * * * - - > w w & * * - e 3 - > > - ",
"- 3 - = > > 1 > 1 > & > > 1 3 > - 3 3 3 > - : 3 4 4 4 3 - > < > ",
"> < - = > > > > > - & - - > 3 3 = 3 3 1 < - ; 3 4 4 3 1 - > > : ",
"> 1 - - > 1 > > > > - > - > 4 3 = > 3 > > - & 3 4 3 > 1 - : 6 ; "
};
