/* XPM */
static char *d7c6d320add240f19de2e8eabad80953c2Y8MzOCeYPrQA8G[] = {
/* columns rows colors chars-per-pixel */
"32 32 172 2 ",
"   c #4E2416",
".  c #542616",
"X  c #562817",
"o  c #5A2A17",
"O  c #532719",
"+  c #562919",
"@  c #5F2F1A",
"#  c #5E2E1B",
"$  c #5F2E1B",
"%  c #5E2F1B",
"&  c #5F2F1B",
"*  c #5E2E1A",
"=  c #5D2D1A",
"-  c #5A2F1D",
";  c #5C2D1C",
":  c #5D2E1C",
">  c #5D2F1C",
",  c #5E2E1C",
"<  c #5F2E1C",
"1  c #5E2F1C",
"2  c #5F2F1C",
"3  c #5E2F1D",
"4  c #5B2C1A",
"5  c #5F301A",
"6  c #5E301B",
"7  c #5F301B",
"8  c #5F301C",
"9  c #5E311C",
"0  c #5E301D",
"q  c #5F301D",
"w  c #5F311D",
"e  c #5E301E",
"r  c #5F311E",
"t  c #5F301C",
"y  c #602D1A",
"u  c #602E1A",
"i  c #602F1A",
"p  c #612F1A",
"a  c #602E1B",
"s  c #602F1B",
"d  c #612F1B",
"f  c #622F1B",
"g  c #632F1B",
"h  c #602F1C",
"j  c #612F1C",
"k  c #602F1D",
"l  c #612F1D",
"z  c #622F1D",
"x  c #602F1B",
"c  c #61301A",
"v  c #60301B",
"b  c #61301B",
"n  c #60311B",
"m  c #61311B",
"M  c #62301A",
"N  c #62301B",
"B  c #62311B",
"V  c #63311B",
"C  c #61321B",
"Z  c #62321B",
"A  c #63321B",
"S  c #60301C",
"D  c #61301C",
"F  c #60311C",
"G  c #61311C",
"H  c #60301D",
"J  c #61301D",
"K  c #60311D",
"L  c #61311D",
"P  c #62301C",
"I  c #62311C",
"U  c #62311D",
"Y  c #63311D",
"T  c #61321C",
"R  c #61321D",
"E  c #62321C",
"W  c #63321C",
"Q  c #62331C",
"!  c #62321D",
"~  c #63321D",
"^  c #62331D",
"/  c #63331D",
"(  c #61311E",
")  c #62301E",
"_  c #63311E",
"`  c #60321E",
"'  c #61321E",
"]  c #61331E",
"[  c #60321F",
"{  c #61331F",
"}  c #62321E",
"|  c #63321E",
" . c #62331E",
".. c #63331E",
"X. c #62321F",
"o. c #63321F",
"O. c #63331F",
"+. c #64321C",
"@. c #65321C",
"#. c #65331C",
"$. c #64321D",
"%. c #65321D",
"&. c #64331D",
"*. c #66331D",
"=. c #64311E",
"-. c #64321E",
";. c #64331E",
":. c #65331E",
">. c #65321F",
",. c #64331F",
"<. c #65331F",
"1. c #66331E",
"2. c #63341D",
"3. c #63341E",
"4. c #62341F",
"5. c #65341C",
"6. c #65341D",
"7. c #65351D",
"8. c #64341E",
"9. c #65341E",
"0. c #64351E",
"q. c #65351E",
"w. c #64351F",
"e. c #65351F",
"r. c #66341E",
"t. c #66351F",
"y. c #67351F",
"u. c #66361E",
"i. c #66361F",
"p. c #67361F",
"a. c #67371F",
"s. c #62321D",
"d. c #68351E",
"f. c #69371F",
"g. c #67381F",
"h. c #532B20",
"j. c #5A2F22",
"k. c #5E3422",
"l. c #603220",
"z. c #643320",
"x. c #663320",
"c. c #633621",
"v. c #653520",
"b. c #663420",
"n. c #643620",
"m. c #663620",
"M. c #673620",
"N. c #673720",
"B. c #673721",
"V. c #663622",
"C. c #673722",
"Z. c #653520",
"A. c #693621",
"S. c #683721",
"D. c #693721",
"F. c #6A3721",
"G. c #693722",
"H. c #673820",
"J. c #663823",
"K. c #673820",
"L. c #683920",
"P. c #683821",
"I. c #6A3920",
"U. c #6B3921",
"Y. c #693B21",
"T. c #6A3B21",
"R. c #693822",
"E. c #683823",
"W. c #683923",
"Q. c #693923",
"!. c #693924",
"~. c #6A3821",
/* pixels */
"= W W W W = W i = W W o o i v +.o = v W X > = X W o v > = v +.f.",
"4 7.+.7.3.= +.W = 3.v X X i v v o = W = . o = X i o W h = = v +.",
"o W i +.7.o n.W = W 7.X X i v v o 4 7.W . o = + = o n.W o = = v ",
"o W = v W o n.W = W +.o + = = v = o n.7 o = = + = = W.W = i = v ",
"o 7 o = W = n.W W 7 +.= + = = 7.7 o n.= = > o + h W G.n.W h = v ",
"4 = 4 W 8 = n.W W = 7.= o o = W 8 o n.= W > X o W W G.n.v h = = ",
"= = o = > h n.8 8 4 7.7 + 4 8 W = o 7.= +.= X o i = n.W i h = = ",
"= = 4 W = W W 7 4 o +.W + h W W = + +.= 7.= X = v = +.+.i h > o ",
"= = W n.W x.3.v = > n.W + W +.+.= . x.= 8 = X o W = h +.W W +.4 ",
"= = 7.W.J.n.W > o o n.= o = +.7.o   8 = = = X o W = = +.W W +.o ",
"i = W W.W.G.8 o + o +.= + o W 7.o O W = W v o o W W = W 7 W W o ",
"W 7 W W.!.G.8 o o o W = X o W +.4 ; n.= W v 4 o v W o = 8 h = o ",
"W W 7.7.W.+.8 4 = o h = o > W +.o 8 G.= W v 4 = v v o = 8 = 4 o ",
"+.W i W J.i 7 > > o > o 4 8 W +.4 l.W.> W v o = W = 4 = = = = h ",
"W 3.W +.W.= 8 W h o > o = W W W 4 W W.> W 7.o > W W = i > o = +.",
"+.W = +.W.= W W W > o o = n.W = 4 W 7.= 7 W o W W W = = > o 4 +.",
"7.W o v 7.7 W W W > o o h W.+.o o 8 7.> = W o W 7.W = o > o 4 i ",
"7.7 4 = W W 7.+.W > o 4 W W.W o + 8 n.+ = +.o = 7.3.o o > = W 4 ",
"= = = 8 W = W v W X 4 = W J.W + + > 7.+ 8 W o = 7.c.o o = = W = ",
"= v > W W W i i W O > = = 7.W X 4 = W o = W 4 = 3.n.o o > = W i ",
"v W W n.W 7.W i 7.l.8 4 = +.W + 8 4 W > = +.4 o W c.= 4 7 = W W ",
"8 3.v W W 7.i W f.7.W = W W W > n.8 W W v +.o o = > = = 7 = W 7.",
"o W 8 W = W i v 7.3.v = = W W W n.W W W v +.= 4 = 4 4 W = = W +.",
"= 7.W = W 7.= = W W = 4 o v v 7 W = v v v W = = = o > W = = W h ",
"= W 8 = W 7.= = v v = = o = W 4 = 8 W = = v o = 4 > W W = = i i ",
"W W 8 = W W = = v 8 4 = = v v o = W W = = v o 4 8 n.7.W = = i = ",
"v W W 8 W v = = = W + o = i = o > W W = W v o = > n.n.7.= v i = ",
"W W W = W v = = 7 h . 4 = i = o > W W W W v 4 W W n.J.7.= 7 = = ",
"v 7.8 o W v > W v h X = = i v = = W 7.n.W = o x.n.7.W.n.4 > 8 = ",
"= l.= o v i h v v = . 4 = W W W o W 7.7.W = + l.n.n.W.7.4 > k.= ",
"7 W 4 o 8 i W 7 i = . = = W 7.W o W 7.W W 4 O l.J.n.7.W = > k.; ",
"7 W 4 4 > h W 7 v = 4 W = W n.7.o W 3.W 8 > O +.n.W v W ; ; j.h."
};
