/* XPM */
static char *_595197027be4eceadac10abacc7e2b7WAD0QmMrAr2314rU[] = {
/* columns rows colors chars-per-pixel */
"32 32 190 2 ",
"   c #130100",
".  c #080E18",
"X  c #17181A",
"o  c #230F00",
"O  c #340D0E",
"+  c #24170C",
"@  c #311704",
"#  c #341904",
"$  c #341D0D",
"%  c #2A0F15",
"&  c #251C12",
"*  c #2B1915",
"=  c #331D12",
"-  c #3C1817",
";  c #351C1C",
":  c #3F240E",
">  c #27251F",
",  c #332012",
"<  c #3B2312",
"1  c #3C2419",
"2  c #39291D",
"3  c #1A1D29",
"4  c #2C1721",
"5  c #2C1A25",
"6  c #301A25",
"7  c #252422",
"8  c #2B2526",
"9  c #2C2923",
"0  c #292829",
"q  c #332D27",
"w  c #382B26",
"e  c #38362F",
"r  c #363C3B",
"t  c #383838",
"y  c #45180C",
"u  c #511A04",
"i  c #461416",
"p  c #451A16",
"a  c #551817",
"s  c #641614",
"d  c #6D1515",
"f  c #781515",
"g  c #43250D",
"h  c #54220E",
"j  c #58230D",
"k  c #442213",
"l  c #422717",
"z  c #4D2415",
"x  c #4A2A14",
"c  c #452C1B",
"v  c #4E2B19",
"b  c #542615",
"n  c #592713",
"m  c #552917",
"M  c #5A2A16",
"N  c #53271A",
"B  c #5E2618",
"V  c #562A19",
"C  c #5C2D1A",
"Z  c #433413",
"A  c #4C321B",
"S  c #51331A",
"D  c #5F301C",
"F  c #5A3A1E",
"G  c #622C16",
"H  c #612F1B",
"J  c #62321D",
"K  c #69331D",
"L  c #67381F",
"P  c #6C391A",
"I  c #591F20",
"U  c #452925",
"Y  c #582C24",
"T  c #443820",
"R  c #483926",
"E  c #533521",
"W  c #5C3221",
"Q  c #5C3D22",
"!  c #413B34",
"~  c #563A3A",
"^  c #6B2424",
"/  c #653520",
"(  c #693721",
")  c #653923",
"_  c #693923",
"`  c #5B4126",
"'  c #4C453A",
"]  c #574237",
"[  c #654327",
"{  c #6C4323",
"}  c #6F4A2B",
"|  c #714B2C",
" . c #764F2D",
".. c #664435",
"X. c #6D4C3C",
"o. c #6D5831",
"O. c #795130",
"+. c #716328",
"@. c #3D4344",
"#. c #3F4846",
"$. c #4D4641",
"%. c #4F4E48",
"&. c #534B43",
"*. c #564E4B",
"=. c #45504F",
"-. c #58524C",
";. c #4D4D51",
":. c #445759",
">. c #565A59",
",. c #694D4A",
"<. c #6B5647",
"1. c #615E56",
"2. c #6A6540",
"3. c #6A625A",
"4. c #566564",
"5. c #5C7276",
"6. c #5D777B",
"7. c #5C7B7F",
"8. c #626A60",
"9. c #776967",
"0. c #68756A",
"q. c #74736C",
"w. c #7D766C",
"e. c #667274",
"r. c #6F7976",
"t. c #657B7D",
"y. c #7B7A72",
"u. c #7B7B79",
"i. c #8F1B19",
"p. c #9E1819",
"a. c #AB1A1C",
"s. c #B1191D",
"d. c #8B2527",
"f. c #923A3B",
"g. c #8A7344",
"h. c #82695C",
"j. c #846F63",
"k. c #9B6162",
"l. c #807D75",
"z. c #A5913D",
"x. c #B5973E",
"c. c #92905C",
"v. c #B2AA5C",
"b. c #89837B",
"n. c #A2A275",
"m. c #BBB976",
"M. c #6B878B",
"N. c #61888F",
"B. c #77979D",
"V. c #769CA4",
"C. c #8B8883",
"Z. c #87969A",
"A. c #83999C",
"S. c #9AA695",
"D. c #869FA4",
"F. c #92A5A5",
"G. c #95A7AB",
"H. c #84ADB4",
"J. c #8FACB1",
"K. c #96AFB6",
"L. c #8FB6BB",
"P. c #9AB0B3",
"I. c #A3B5B3",
"U. c #A8B7B6",
"Y. c #A5BABD",
"T. c #A8BDBC",
"R. c #FEEE88",
"E. c #93C7D1",
"W. c #ACC2C3",
"Q. c #A2C5CA",
"!. c #A9C6C9",
"~. c #AAC7CC",
"^. c #A7C8CF",
"/. c #B4CACE",
"(. c #ADCED3",
"). c #B3CDD3",
"_. c #ABD0D4",
"`. c #B2D1D7",
"'. c #BCD3D2",
"]. c #B9D1D6",
"[. c #B5D3D8",
"{. c #BCD6DB",
"}. c #BEDAE0",
"|. c #C0D7D7",
" X c #C1D7DB",
".X c #C2DBDB",
"XX c #C3DEE4",
"oX c #CAE2E3",
"OX c #C5E7EC",
"+X c #DAF5F7",
/* pixels */
"C J J J J C J H C J J M M J J J M C J J m C C m J M J C C J J K ",
"C J J J J C J J C J J m m H H J M C J C N M C m H M J H C C J J ",
"M J H J J M / J C J J m m J J J H C J C N M C m C M / J M C C J ",
"M J C J J M / J C J J C N N k k k k D J M C C m C C _ J C H C J ",
"M D M C J C / J J D J k = < A A A < , $ m J M m H J ( / J H C J ",
"C C C J D C / J J D < c F  . .O.} | Q S , z M m J J ( / J H C C ",
"C C M C C H / D J k $ { [ x g @ # g [  . .A N C H C J J H H C C ",
"C C C J C J J J m , ) l $ & r =.#.> o S Q c $ C J C J J H H C M ",
"C C J / J J J J k < | x q L.(.`.`.Q.t.&   & , M J C H J J H J C ",
"C C J _ ) / D G k E | x 9 ^. X{.]./.}.D.>.w < V J C C J J J J M ",
"H C J _ _ K &.$.= @ S : > A.Z.e.F.{.).].].e.r.k J J C J D J J M ",
"J D J _ _ K $.N.5.:.+ + V.4.Z R 2 t Y.[.K.q e < J J C C C H C M ",
"J J J J _ K E 7.B.6.4.7 (.).v.R.0.+.! ~.8.2.T k J J n M / C C M ",
"J J H J ) J M $.V.6.M.:.(..XT.n.c.m.S.).S.m.<.n J n ..b.<.n C H ",
"J J J J _ C J M &.t.H.H.~.|.oXoXoXoX+X'.G.).C.h / j.b.C.D M C J ",
"J J C J _ C D J G u >.E.Q.'..X'.I.T.W.T.F.XXu.u h.y.y.X.M M C J ",
"J J M J J C J J J / h -.H._..X'.U.'.W.W.P.Z.z ..q.l.h.b D M C H ",
"J D C C J J J J J C C U >.5.V.L.Q.!.W.F.3.b W q.w.X.h C C C J C ",
"C C C D J C J J J M = X 0 t 8 a U @.q y j Q 1.3.) J M M C C J C ",
"C J C J J J H H J k X X 3 Y d.k.f.- 9 ` ] &.*.M J / M M C C J H ",
"J J J / J J J H K U 7 . 4 f i.^ f O X z.' ' W M J / C C D C J J ",
"D J J J J J H J L 2 0 5.;.% - i - ;.A.g.x.o.z C C C C C C C J J ",
"M J D J H J H J J 1 r OXU.,.>.I ~ 9.J.-.P { C C C C C J C C J J ",
"C J J C J J C C J E 9 %.~ d w ; 5 i ! l H H C C C M C J C C J H ",
"C J D C J J C C J V 1 h O 4 ; * 6 p z m J J M C C C J J C C H H ",
"J J D C J J C C J D m V d a.i.a p.s.B D C J M C D / J J C C H C ",
"J J J D J J C C C V k $ i d d y s s p < k z z C C / / J C J H C ",
"J J J C J J C C D C z m m v x z v v C C D C C J J / ) J C D C C ",
"J / D M J J C J J H m C H J J J H J J / J C C / / J ( / C C D C ",
"C J C M J H H J J C N C C J J J M J J J J C m J J / _ J C C W C ",
"D J C M D H J D H C N C C J J J M J J J J C N J L _ J J C C W C ",
"D J C C C H J D J C C J C J / J M J J J D C N J L / J J C C W Y "
};
