/* XPM */
static char *_8c51a43e5244b14b3627de38ae76f69Kn4fKChG3xbI24aq[] = {
/* columns rows colors chars-per-pixel */
"32 32 176 2 ",
"   c #1E120E",
".  c #1D1310",
"X  c #23120D",
"o  c #2B160E",
"O  c #201411",
"+  c #241916",
"@  c #2E1B16",
"#  c #2C1E1A",
"$  c #321C14",
"%  c #391D14",
"&  c #381F18",
"*  c #2E221E",
"=  c #3D2116",
"-  c #33231E",
";  c #3D241C",
":  c #332622",
">  c #3A2621",
",  c #342925",
"<  c #3B2A25",
"1  c #352B29",
"2  c #3B2E2A",
"3  c #3D312D",
"4  c #3E3633",
"5  c #520E09",
"6  c #422216",
"7  c #40241A",
"8  c #4A271B",
"9  c #472A1E",
"0  c #492A1E",
"q  c #502C1E",
"w  c #58291A",
"e  c #432C23",
"r  c #492E23",
"t  c #432F29",
"y  c #542E20",
"u  c #4B3125",
"i  c #43322D",
"p  c #4A342C",
"a  c #513225",
"s  c #5A3424",
"d  c #53362B",
"f  c #59372C",
"g  c #54382A",
"h  c #433632",
"j  c #4B3731",
"k  c #453A35",
"l  c #4B3A34",
"z  c #473C39",
"x  c #4B3E3A",
"c  c #503732",
"v  c #543B33",
"b  c #5C3D31",
"n  c #533F38",
"m  c #613726",
"M  c #623A26",
"N  c #633B2A",
"B  c #693E2A",
"V  c #6B3F30",
"C  c #4D413D",
"Z  c #5E4234",
"A  c #53423C",
"S  c #5A443B",
"D  c #65412F",
"F  c #6B402E",
"G  c #754324",
"H  c #73422C",
"J  c #634235",
"K  c #6D4432",
"L  c #624539",
"P  c #654A3E",
"I  c #6C4C3E",
"U  c #734431",
"Y  c #7B4632",
"T  c #7C4934",
"R  c #734E3B",
"E  c #7D4D39",
"W  c #77503C",
"Q  c #7C523D",
"!  c #4D4442",
"~  c #524742",
"^  c #594640",
"/  c #544945",
"(  c #5A4B44",
")  c #544C4A",
"_  c #5A4E4A",
"`  c #5C514C",
"'  c #5E5552",
"]  c #644C43",
"[  c #6B4E41",
"{  c #674F48",
"}  c #675147",
"|  c #6B5143",
" . c #63534C",
".. c #6B544C",
"X. c #755342",
"o. c #7A5342",
"O. c #7D5947",
"+. c #76574B",
"@. c #7C5D4F",
"#. c #635651",
"$. c #6E5751",
"%. c #655954",
"&. c #6C5C55",
"*. c #645D5A",
"=. c #6A5E5A",
"-. c #775F58",
";. c #6C615D",
":. c #73645D",
">. c #6E6461",
",. c #736662",
"<. c #736964",
"1. c #7B6C65",
"2. c #756D6A",
"3. c #796E6A",
"4. c #7B716C",
"5. c #7D7571",
"6. c #7F7873",
"7. c #84492D",
"8. c #955226",
"9. c #9E572E",
"0. c #804A34",
"q. c #844E34",
"w. c #824E39",
"e. c #805232",
"r. c #8F5136",
"t. c #8C5236",
"y. c #85523B",
"u. c #8F5338",
"i. c #8C533B",
"p. c #8B573E",
"a. c #96573A",
"s. c #92563C",
"d. c #96583A",
"f. c #95593D",
"g. c #9A5B3D",
"h. c #AC643B",
"j. c #CC601B",
"k. c #805541",
"l. c #855741",
"z. c #8F5B43",
"x. c #8B5A44",
"c. c #825D4C",
"v. c #885E4E",
"b. c #915740",
"n. c #935B43",
"m. c #9B5D40",
"M. c #9E5E41",
"N. c #9C5C43",
"B. c #925E4B",
"V. c #A05C40",
"C. c #9B6142",
"Z. c #90624F",
"A. c #9D6048",
"S. c #8C6253",
"D. c #8B6C59",
"F. c #936553",
"G. c #9C6750",
"H. c #946956",
"J. c #976D5A",
"K. c #9A6D5A",
"L. c #9D725E",
"P. c #A46444",
"I. c #A1684E",
"U. c #A8694E",
"Y. c #AB6A50",
"T. c #AD7459",
"R. c #9E7260",
"E. c #827771",
"W. c #827A75",
"Q. c #847B78",
"!. c #897F78",
"~. c #A27562",
"^. c #A47A66",
"/. c #A97A66",
"(. c #AC7D69",
"). c #87817C",
/* pixels */
">.' 3 3.,.=.;.;.>.>.' 3 ,.2.%.=.>.<.) i E.:.&.:.;.>.<.! x 3.,.%.",
"~ h - / p < i 1 / / # - C k - < h / 3 : ( i < 2 3 / C @ 2 / 3 # ",
"<  .1.%.:.:.S : $ F x.T.p.y.| i X i &.1.%.:.&.l + r H G.I.w.l.S ",
"v ..} ..} ( A x v g.s.f.P.a.I A p A $.} $.} ( A k K V.s.M.P.r.P ",
"p p S j < A i A ;.a H 0.H N p 2 :.i j S j t n < ` ` N T E B s e ",
"=.A j i < C h x ;.' 3 i 3 z 3 h %.` h j < 3 C 1 ) =.~ 3 i k k , ",
"[ S x i C L k.o.o.W S ` ~ ] O.o.o.o.S h x A R o.o.l.R ~ ` A o.c.",
"H F ( ' 2.J r.a.M.d.K *.2.+.u.d.f.H ] ! 2.#.H r.N.M.q.( 2.:.p.d.",
"; t # C ! - e u r u ; , / k % 6 ; e : 3 ' 2 < p e e e # x ! - 6 ",
"W.2.z i 4.4.2.5.W.E.W._   ` 2.4.W.4.! 1 2.4.2.<.6.E.E.#.+ ( 3.5.",
",.W.` * W.2.#.( %.<.3.%.. =.W.;.:.!.;.+ 2.4.=.` ` ,.<.*.+ %.W.<.",
"4 1 v ; < : 1 ) x * > f r < : z h * v ; > < : ~ C , > s u e : k ",
": b (.L.H.v.p C 3 ; u.M.U.A.N _ 3 g /.~.H.S.v k C # T V.Y.M.F A ",
"; F.K.L.^.o.r =.' r u.w.y.M.Y l ; B.K.J.^.c.g _ <.i T u.q.s.y.t ",
"$ E s.u.z.y.7 x ! e u.b.s.n.V t $ U b.w.b.b.9 h ! 2 Y N.u.f.y.> ",
"k = q B m % z ) ) x s H U 8 o ( x ; 8 N m = i ) / ) a H T m o i ",
":.:.~   > Z @.c.O.R 9 $ o h  .:.:.:.~ O : _ ;.%. .P a % o < _ :.",
":.1.$.i n n.f.C.P.g.p.R < ` ,.:.:.1.&.i C ,._ C ( | y.R < ~ 1.=.",
"p p p ` ( r s M M s D g &.A i j u p j ~  .> j A j e J g &.^ p j ",
"A S 2 ~ %.` h i 2 x ~ 4 ( =.( l x A 2 C =. .x i i A ~ 4 / *._ j ",
"C P Q Q Q Q S h x x W W W Q I A / ~ R o.W W Z h h l R Q W Q X.A ",
"2.[ 7.r.g.7.I ! 2.=.F r.s.s.T S %.2.X.r.u.q.B S *.>.U d.g.g.q.S ",
"_ 3 e p e u - 1 _ 4 * u u p u - 1 ! h & ; ; p z ' ! * e 9 9 e - ",
"3.5.3.2.W.Q.W.1 z 4.W.5.2.Q.).Q.%.O _ 3.5.5.2.4.W.E.W.1 C 2.4.E.",
",.;.` ~ %.;.<.: 2 =.%.#./ ) ;.,.%.  ) ,.;.%./ ) ;.,.2.: h :.=.%.",
"< # z _ x * e v L n < 1 _ C : - i C h i - : ) ( h # t e t u - z ",
"..j < x 2 - F.R.^.K.O.p h x # S ..-...} { t h C : d L.R.~.S.J 2 ",
"] p _ 4.*.> Z.H.R.^.O.e #.:.2 S { ] ] { S p >.4.~ f K.H.^.S.f j ",
"{ - _ 3.;.< 0.u.p.n.y.; ) / 3 c ..{ { ..S # ;.<.) y g.u.n.h.8.i ",
"t / ) ` ` ` r 9 ; 7 ; ) ) ) ` t p S v n e ) _ ) ` n 0 ; G j.e.` ",
"`  .] } ( A t # ! ' ` ( { } S j @ - _  . .%.%...( A < @ 9.D...] ",
",.^ w b ] ] { p ` ,./ s s P ] } n i <.;._ ] &...{ ] ] p #.*.c 5 "
};
